HIERARCHY
ROOT Hips
{
  OFFSET -35.4901 99.2528 17.4586
  CHANNELS 6 Xposition Yposition Zposition Zrotation Xrotation Yrotation
  JOINT LeftUpLeg
  {
    OFFSET 8.64259 1.95398 -2.38835
    CHANNELS 3 Zrotation Xrotation Yrotation
    JOINT LeftLeg
    {
      OFFSET 43.7702 0 0
      CHANNELS 3 Zrotation Xrotation Yrotation
      JOINT LeftFoot
      {
        OFFSET 40.6238 0 0
        CHANNELS 3 Zrotation Xrotation Yrotation
        JOINT LeftToeBase
        {
          OFFSET 12.7242 0 0
          CHANNELS 3 Zrotation Xrotation Yrotation
          End Site
          {
            OFFSET 0 0 0
          }
        }
      }
    }
  }
  JOINT RightUpLeg
  {
    OFFSET -8.2249 1.95398 -2.59336
    CHANNELS 3 Zrotation Xrotation Yrotation
    JOINT RightLeg
    {
      OFFSET 43.5653 0 0
      CHANNELS 3 Zrotation Xrotation Yrotation
      JOINT RightFoot
      {
        OFFSET 40.6238 0 0
        CHANNELS 3 Zrotation Xrotation Yrotation
        JOINT RightToeBase
        {
          OFFSET 12.7242 0 0
          CHANNELS 3 Zrotation Xrotation Yrotation
          End Site
          {
            OFFSET 0 0 0
          }
        }
      }
    }
  }
  JOINT Spine
  {
    OFFSET 0.165834 0.87714 6.61349
    CHANNELS 3 Zrotation Xrotation Yrotation
    JOINT Spine1
    {
      OFFSET 7.38963 1.71661e-005 0
      CHANNELS 3 Zrotation Xrotation Yrotation
      JOINT Spine2
      {
        OFFSET 11.9445 1.14441e-005 0
        CHANNELS 3 Zrotation Xrotation Yrotation
        JOINT Spine3
        {
          OFFSET 14.7254 4.19617e-005 0
          CHANNELS 3 Zrotation Xrotation Yrotation
          JOINT Spine4
          {
            OFFSET 10.9679 0 0
            CHANNELS 3 Zrotation Xrotation Yrotation
            JOINT RightShoulder
            {
              OFFSET 2.46616 -1.6653 3.69651
              CHANNELS 3 Zrotation Xrotation Yrotation
              JOINT RightArm
              {
                OFFSET 13.0012 0 0
                CHANNELS 3 Zrotation Xrotation Yrotation
                JOINT RightForeArm
                {
                  OFFSET 28.7848 1.52588e-005 0
                  CHANNELS 3 Zrotation Xrotation Yrotation
                  JOINT RightHand
                  {
                    OFFSET 26.5688 1.52588e-005 0
                    CHANNELS 3 Zrotation Xrotation Yrotation
                    End Site
                    {
                      OFFSET 0 0 0
                    }
                  }
                }
              }
            }
            JOINT LeftShoulder
            {
              OFFSET 2.38034 -1.29275 -3.7523
              CHANNELS 3 Zrotation Xrotation Yrotation
              JOINT LeftArm
              {
                OFFSET 16.3182 6.10351e-005 0
                CHANNELS 3 Zrotation Xrotation Yrotation
                JOINT LeftForeArm
                {
                  OFFSET 27.0901 0 0
                  CHANNELS 3 Zrotation Xrotation Yrotation
                  JOINT LeftHand
                  {
                    OFFSET 24.5451 1.52588e-005 0
                    CHANNELS 3 Zrotation Xrotation Yrotation
                    End Site
                    {
                      OFFSET 0 0 0
                    }
                  }
                }
              }
            }
            JOINT Neck
            {
              OFFSET 5.0226 -0.0266342 0
              CHANNELS 3 Zrotation Xrotation Yrotation
              JOINT Head
              {
                OFFSET 6.69364 2.86102e-005 0
                CHANNELS 3 Zrotation Xrotation Yrotation
                End Site
                {
                  OFFSET 0 0 0
                }
              }
            }
          }
        }
      }
    }
  }
}
MOTION
Frames:	12
Frame Time:	0.0416667
-348.775 91.8328 328.642 -102.611 -39.7451 -81.7494 -171.531 21.2747 110.137 -39.955 18.0691 1.07714 73.4092 5.69818 0.360831 15.384 -2.57059 4.42829 -175.277 3.86349 106.848 -8.17926 2.06287 -0.141563 55.5728 -3.71153 0.597168 24.6782 -0.803305 2.50253 -0.638843 12.7527 -90.5666 1.36569 -1.49082 -1.14959 -10.3049 -1.53994 -1.08286 -32.8398 -1.06991 -1.54445 -12.8271 -1.06993 -1.54445 92.4331 9.95076 -136.204 46.2278 2.13187 -60.1402 0.0334462 -5.60997 0.000116923 -23.7406 1.28617 -12.3229 -79.319 -14.898 93.0674 -52.891 5.42728 -52.2348 177.669 21.9932 -179.99 41.2483 8.04972 15.7928 75.6033 -11.4569 -15.5694 -53.7619 6.62961 -3.68154 
-348.81 91.8506 328.583 -102.586 -39.8927 -81.5132 -171.521 21.4609 110.378 -40.0391 18.6798 1.20695 73.3712 5.76241 0.750544 15.0561 -2.32534 4.10855 -175.267 4.02125 107.175 -8.2073 1.03386 -0.106903 56.1518 -3.75639 -0.407063 22.9662 -0.405973 1.69938 -0.636932 12.7519 -90.5834 1.3664 -1.49324 -1.18266 -10.3042 -1.54388 -1.1158 -32.8391 -1.06919 -1.57674 -12.8265 -1.0692 -1.57673 92.4644 10.0074 -136.191 47.814 2.90319 -60.2522 -0.106663 -12.8829 0.000119368 -19.772 0.31866 -9.10071 -79.2804 -14.7871 93.1558 -53.7815 4.98885 -51.8614 178.048 20.6795 -179.99 40.3142 7.77313 15.5771 75.7624 -11.3621 -15.415 -53.9255 6.87526 -4.16134 
-348.93 91.7628 328.363 -102.37 -40.6244 -80.5946 -171.407 22.5417 111.378 -40.635 20.5136 1.38203 73.5374 6.07376 1.16646 14.7422 -2.15794 3.89297 -174.926 4.50669 108.087 -8.22902 2.30576 -0.0429025 56.0033 -3.77445 -0.370105 23.4336 -0.377143 1.59019 -0.650442 12.7445 -90.6775 1.37154 -1.55607 -1.36815 -10.2991 -1.61477 -1.29834 -32.8326 -1.07301 -1.7725 -12.8199 -1.07302 -1.7725 92.3113 9.731 -136.257 48.465 3.00123 -60.2959 -1.17602 -11.9795 0.000118953 -20.7157 0.520292 -9.91385 -79.2057 -14.8127 93.347 -54.078 4.76801 -51.6735 177.861 18.361 -179.99 36.166 6.87532 15.4033 75.9978 -11.1887 -15.0535 -54.1857 7.27381 -5.11451 
-349.124 91.7525 328.194 -102.225 -40.9606 -80.0279 -171.151 22.9893 112.31 -40.9438 21.6275 1.17527 73.3618 6.12404 1.12669 15.3748 -2.31243 4.08684 -174.469 4.31853 108.736 -7.77314 3.22588 0.00198179 55.6407 -3.8049 -0.371141 23.733 -0.40592 1.62991 -0.643763 12.7349 -90.7144 1.3849 -1.55679 -1.43947 -10.286 -1.61863 -1.36957 -32.8178 -1.0523 -1.84073 -12.8051 -1.05232 -1.84075 92.112 9.31642 -136.215 48.3459 2.91638 -59.8637 -1.12958 -11.9688 0.000118949 -20.9729 0.484439 -9.61423 -79.11 -14.8098 93.5897 -53.2624 5.19087 -51.8704 176.644 15.6337 -179.99 27.6005 5.08697 14.8606 76.1863 -10.8674 -14.392 -54.3623 7.80548 -6.63712 
-348.697 92.7278 331.773 -103.272 -38.2375 -90.4159 -175.259 11.796 98.5122 -31.6713 7.34733 1.91426 72.2831 4.21016 -0.284139 13.9419 -1.73158 3.35753 178.93 3.6082 97.2132 -15.1388 -6.70102 -1.19052 60.8298 -3.36158 0.380389 23.7948 -0.310492 1.39735 -1.06053 12.7125 -89.5082 1.45396 -1.92928 0.901017 -10.2159 -1.88774 0.98508 -32.7622 -2.11086 0.279311 -12.7495 -2.11085 0.279315 91.9174 8.88827 -136.125 46.4137 2.44048 -59.011 0.273699 -10.5978 0.000118382 -21.2912 0.331846 -8.4466 -78.9785 -14.8403 93.9252 -53.505 5.21215 -51.7055 175.778 10.5394 -179.991 14.3388 2.27941 11.6622 76.648 -10.2475 -13.2691 -54.6803 8.58371 -8.80815 
-348.573 93.2952 336.46 -103.547 -35.837 -101.828 175.391 5.01724 81.3284 -17.8636 -7.39964 5.03659 67.5108 2.62058 -0.892059 14.517 -1.95063 3.62712 170.679 8.27358 83.6352 -24.3744 -18.3837 -2.96401 66.7958 -3.6364 0.746165 24.7424 -0.212379 1.06204 -1.61456 12.6105 -88.1669 1.67092 -2.52087 3.50643 -10.0027 -2.3642 3.61383 -32.5337 -3.45777 2.58721 -12.5211 -3.4578 2.5872 91.4568 7.96413 -136.127 45.8678 2.64221 -58.6984 0.418805 -10.6809 0.000118414 -20.9865 0.321594 -8.45513 -78.8834 -14.8547 94.1672 -53.249 5.52641 -51.5062 174.85 5.38393 -179.991 -1.22962 0.0385316 6.31692 77.0149 -9.50107 -11.8983 -54.9559 9.44823 -11.4289 
-348.858 93.3441 338.396 -103.269 -35.0667 -106.772 169.99 -0.743687 73.7097 -9.08144 -12.5269 6.85836 63.9623 2.74124 -0.692688 14.3409 -2.31299 4.10072 167.543 9.77325 76.0435 -28.2394 -23.6084 -3.69974 69.2591 -4.32922 0.572226 24.7799 -0.142088 0.887073 -1.85581 12.5266 -87.5526 1.84895 -2.76391 4.70491 -9.82801 -2.55439 4.82167 -32.3413 -4.04924 3.65841 -12.3286 -4.04923 3.65841 91.0617 7.1397 -136.072 45.3201 2.70639 -58.4013 0.222416 -10.1554 0.000118215 -21.2453 0.372349 -8.62722 -78.7516 -15.0392 94.5113 -51.6808 6.22887 -51.691 173.994 1.82349 -179.991 -14.4126 -0.653872 0.690077 77.4104 -8.70203 -10.4524 -55.1974 10.4256 -14.3093 
-349.133 93.3362 338.677 -102.747 -34.6685 -108.64 168.65 -1.04838 71.3785 -6.06375 -13.6886 6.84278 62.7795 2.89891 -0.590618 14.0982 -2.11983 3.85409 167.143 11.552 73.9743 -29.9713 -25.0051 -4.3987 69.8668 -4.54099 0.386066 25.3136 -0.166034 0.88277 -1.89788 12.433 -87.2693 2.0371 -2.73471 5.26668 -9.64211 -2.50062 5.38152 -32.141 -4.18987 4.20382 -12.1283 -4.18984 4.20383 90.4033 5.91107 -136.29 44.7922 3.1621 -57.7058 0.0903173 -10.7589 0.000118445 -20.8542 0.328687 -8.51976 -78.6784 -15.3585 94.714 -50.739 6.64438 -51.6638 173.945 -1.51428 -179.991 -23.7271 -0.241328 -3.48487 77.5939 -7.7665 -8.8576 -55.365 11.5307 -17.5806 
-349.266 93.3361 337.882 -102.04 -34.1943 -108.778 169.784 -0.582308 72.1862 -6.49602 -13.2396 5.26314 62.2166 2.75445 -0.594596 14.9815 -2.26214 4.02655 168.422 12.2686 74.5711 -30.6888 -24.0372 -5.41223 69.7214 -4.43982 0.257322 25.581 -0.304383 1.19523 -1.78778 12.3454 -87.1746 2.20675 -2.47469 5.46447 -9.47375 -2.23216 5.56767 -31.9612 -4.00106 4.47101 -11.9486 -4.00108 4.471 89.7199 4.53481 -136.326 43.4858 3.35282 -56.8278 0.758445 -10.1602 0.000460486 -21.3601 0.289766 -8.12782 -78.5808 -16.0001 94.9892 -48.5274 7.59294 -52.3536 173.357 -2.90601 -179.99 -29.1888 0.209416 -5.628 77.6066 -6.56705 -6.9406 -55.2422 12.5983 -21.1235 
-349.414 93.2409 336.175 -101.361 -33.8072 -107.072 173.013 0.962393 75.8426 -10.5094 -10.6665 3.08791 63.7744 2.66511 -0.499697 14.6444 -2.21391 3.96978 171.176 11.996 77.7972 -30.4999 -20.8101 -6.25112 68.9098 -4.16402 0.189614 25.9811 -0.381327 1.34407 -1.51467 12.2752 -87.2918 2.33671 -1.97175 5.25047 -9.34367 -1.7391 5.33184 -31.8264 -3.45716 4.4177 -11.8137 -3.45717 4.41769 89.073 3.28633 -136.471 43.6034 4.3438 -55.5237 0.742948 -10.6131 -0.290194 -20.8548 0.22695 -7.89617 -78.6905 -16.5789 94.7466 -47.2182 8.14113 -52.2694 173.068 -4.31151 -179.988 -32.0956 0.472248 -6.50007 77.2415 -5.27917 -4.95847 -54.7123 13.6302 -24.8962 
-349.567 92.9387 333.877 -100.937 -33.2476 -103.352 178.284 4.78667 82.3386 -17.7616 -6.0382 0.245101 67.1738 2.87537 -0.682216 13.4519 -2.07471 3.80339 175.288 11.4386 83.4382 -29.2317 -15.953 -6.39821 67.5326 -4.07812 0.256207 25.8706 -0.416392 1.44427 -1.04658 12.2178 -87.6154 2.43829 -1.16101 4.63681 -9.24055 -0.956016 4.68327 -31.7258 -2.49977 4.07513 -11.7132 -2.49979 4.07512 87.9882 1.37667 -137.011 42.9659 6.03103 -53.6445 0.581947 -11.1755 -0.741378 -21.3356 0.36365 -8.69559 -78.7694 -17.3628 94.5958 -43.4579 9.8252 -52.9403 171.478 -3.40488 -179.986 -36.1374 0.907796 -7.64816 76.5422 -4.33418 -3.37552 -54.079 14.153 -27.705 
-349.374 92.3058 331.945 -101.788 -31.5509 -103.266 -178.729 5.53059 85.4003 -22.4628 -4.128 -2.29768 68.862 2.85506 -0.593073 13.1999 -1.89096 3.57625 178.647 11.7822 85.5883 -31.5411 -13.2325 -7.2809 67.6063 -4.57675 0.157218 26.1969 -0.377423 1.31022 -0.650457 12.2604 -87.5972 2.33768 -0.364729 4.68448 -9.34168 -0.15842 4.69595 -31.8168 -1.75445 4.35947 -11.8041 -1.75445 4.35947 87.0665 -0.316437 -137.334 43.9679 8.76407 -51.6409 -0.208441 -12.9962 -1.28203 -21.4051 0.453238 -9.46808 -79.0912 -18.4322 93.8898 -39.6379 11.0965 -53.1027 170.002 -2.57138 -179.984 -41.9243 1.98455 -10.123 75.0741 -3.3477 -1.81838 -52.6679 14.1064 -29.8895 
